<!-- Generated by IcoMoon.io -->
<svg version="1.1" xmlns="http://www.w3.org/2000/svg" width="768" height="768" viewBox="0 0 768 768">
<title></title>
<g id="icomoon-ignore">
</g>
<path fill="#000" d="M736 384c0-97.184-39.424-185.248-103.104-248.896s-151.712-103.104-248.896-103.104-185.248 39.424-248.896 103.104-103.104 151.712-103.104 248.896 39.424 185.248 103.104 248.896 151.712 103.104 248.896 103.104 185.248-39.424 248.896-103.104 103.104-151.712 103.104-248.896zM672 384c0 79.552-32.192 151.488-84.352 203.648s-124.096 84.352-203.648 84.352-151.488-32.192-203.648-84.352-84.352-124.096-84.352-203.648 32.192-151.488 84.352-203.648 124.096-84.352 203.648-84.352 151.488 32.192 203.648 84.352 84.352 124.096 84.352 203.648zM512 352h-178.752l73.376-73.376c12.512-12.512 12.512-32.768 0-45.248s-32.768-12.512-45.248 0l-128 128c-3.072 3.072-5.376 6.592-6.944 10.368-1.632 3.904-2.432 8.096-2.432 12.256 0 8.192 3.136 16.384 9.376 22.624l128 128c12.512 12.512 32.768 12.512 45.248 0s12.512-32.768 0-45.248l-73.376-73.376h178.752c17.664 0 32-14.336 32-32s-14.336-32-32-32z"></path>
</svg>
